<svg width="719" height="370" viewBox="0 0 719 370" fill="none" xmlns="http://www.w3.org/2000/svg">
<path d="M432.673 20.1485C429.739 18.7646 426.705 17.4466 423.687 16.2275L424.924 13.1797C427.991 14.4153 431.074 15.7662 434.075 17.1666L432.673 20.132V20.1485Z" fill="#231F20"/>
<path d="M534.539 155.538C528.669 118.074 511.455 83.988 484.777 56.953C473.581 45.602 460.918 35.7666 447.134 27.727L448.783 24.8933C462.814 33.0812 475.708 43.0814 487.118 54.6466C514.275 82.1758 531.802 116.888 537.787 155.027L534.539 155.538Z" fill="#231F20"/>
<path d="M213.393 292.706C190.557 261.947 178.355 225.489 178.075 187.251H181.356C181.62 224.764 193.607 260.564 216.015 290.745L213.377 292.706H213.393Z" fill="#231F20"/>
<path d="M212.75 85.9484L210.063 84.0703C211.959 81.352 213.954 78.6501 215.999 76.0471L218.587 78.0735C216.576 80.6271 214.63 83.2795 212.767 85.9484H212.75Z" fill="#231F20"/>
<path d="M243.468 52.2576L241.358 49.7535C260.204 33.8719 281.738 22.2737 305.35 15.272L306.289 18.4186C283.107 25.2886 261.968 36.6726 243.468 52.2576Z" fill="#231F20"/>
<path d="M374.172 12.2573C368.484 11.6477 362.696 11.3182 356.975 11.2688C355.095 11.2688 353.216 11.2688 351.352 11.3182L351.27 8.03973C353.183 7.99031 355.095 7.97383 357.008 7.99031C362.845 8.03973 368.748 8.36923 374.535 8.99526L374.189 12.2573H374.172Z" fill="#231F20"/>
<path d="M430.464 28.2212C427.529 26.8209 424.512 25.47 421.511 24.2508L422.764 21.2195C425.814 22.4716 428.898 23.839 431.882 25.2723L430.464 28.2377V28.2212Z" fill="#231F20"/>
<path d="M527.597 166.131C523.673 127.316 506.41 90.6109 478.957 62.7687C465.667 49.2924 450.333 38.139 433.399 29.6381L434.866 26.7056C452.13 35.3548 467.744 46.7223 481.298 60.4622C509.262 88.8316 526.872 126.246 530.862 165.801L527.597 166.131Z" fill="#231F20"/>
<path d="M217.037 283.661C199.147 258.01 188.644 227.977 186.649 196.807L189.93 196.593C191.876 227.153 202.181 256.61 219.725 281.783L217.037 283.661Z" fill="#231F20"/>
<path d="M519.864 172.572C517.276 133.494 500.672 96.5581 473.12 68.6006C456.697 51.9282 437.274 39.1603 415.41 30.6759L416.597 27.6116C438.89 36.2608 458.692 49.2758 475.461 66.2941C503.557 94.8283 520.491 132.489 523.146 172.358L519.864 172.572Z" fill="#231F20"/>
<path d="M522.766 198.948L519.502 198.635C519.798 195.406 520.013 192.111 520.128 188.866L523.409 188.981C523.294 192.292 523.08 195.637 522.766 198.932V198.948Z" fill="#231F20"/>
<path d="M223.221 278.109C206.765 254.188 197.004 226.28 194.959 197.383L198.241 197.153C200.236 225.473 209.816 252.821 225.925 276.248L223.221 278.109Z" fill="#231F20"/>
<path d="M287.74 43.1473L286.322 40.1818C290.312 38.2708 294.434 36.508 298.573 34.9429L299.743 38.0072C295.687 39.5393 291.664 41.2692 287.74 43.1473Z" fill="#231F20"/>
<path d="M302.81 36.8867L301.706 33.7895C302.744 33.4106 303.8 33.0481 304.855 32.7021L305.894 35.8159C304.855 36.1618 303.833 36.5078 302.81 36.8867Z" fill="#231F20"/>
<path d="M515.066 191.271L511.785 191.106C511.9 188.948 511.95 186.774 511.966 184.665C512.313 143.198 496.451 104.054 467.283 74.4328C439.78 46.4917 403.011 29.984 363.752 27.9577L363.917 24.6792C404 26.7385 441.528 43.5921 469.624 72.1263C499.402 102.374 515.594 142.358 515.248 184.681C515.231 186.84 515.165 189.064 515.05 191.271H515.066Z" fill="#231F20"/>
<path d="M229.948 273.365C218.868 257.219 211.036 239.377 206.666 220.3L209.865 219.575C214.136 238.241 221.803 255.704 232.652 271.503L229.948 273.365Z" fill="#231F20"/>
<path d="M206.683 220.299C206.073 217.614 205.512 214.863 205.05 212.128L208.282 211.568C208.744 214.237 209.288 216.922 209.881 219.558L206.683 220.283V220.299Z" fill="#231F20"/>
<path d="M503.557 176.081C501.776 140.051 486.821 106.014 461.462 80.2316C433.729 52.0269 396.613 36.3101 356.958 35.9641H355.491V32.6692H356.991C397.52 33.0316 435.46 49.0944 463.804 77.9251C489.723 104.285 505.008 139.079 506.838 175.9L503.557 176.065V176.081Z" fill="#231F20"/>
<path d="M233.559 263.842C224.012 248.702 217.4 232.128 213.888 214.599L217.103 213.957C220.533 231.09 226.997 247.285 236.329 262.096L233.542 263.842H233.559Z" fill="#231F20"/>
<path d="M369.077 44.8441C365.071 44.4652 360.998 44.251 356.958 44.2016C353.413 44.1687 349.819 44.2675 346.274 44.5146L346.06 41.2362C349.687 40.989 353.364 40.8902 356.991 40.9231C361.114 40.9561 365.285 41.1867 369.391 41.5657L369.077 44.8276V44.8441Z" fill="#231F20"/>
<path d="M492.955 157.037C487.745 130.167 474.834 105.636 455.625 86.0803C433.432 63.477 403.835 48.9628 372.309 45.2066L372.705 41.9446C404.973 45.7997 435.262 60.6433 457.983 83.7738C477.654 103.791 490.861 128.914 496.187 156.411L492.955 157.037V157.037Z" fill="#231F20"/>
<path d="M234.664 249.196C230.08 240.3 226.452 230.909 223.897 221.239L227.079 220.398C229.585 229.822 233.114 238.998 237.599 247.681L234.68 249.18L234.664 249.196Z" fill="#231F20"/>
<path d="M317.139 58.1722L316.182 55.0255C319.348 54.07 322.613 53.1968 325.861 52.4719L326.587 55.668C323.421 56.3764 320.239 57.2166 317.139 58.1557V58.1722Z" fill="#231F20"/>
<path d="M371.913 53.4438C366.967 52.8342 361.938 52.5048 356.958 52.4553C352.193 52.4059 347.379 52.6201 342.646 53.0814L342.317 49.8194C347.164 49.3416 352.094 49.1274 356.975 49.1769C362.086 49.2263 367.231 49.5723 372.293 50.1983L371.897 53.4603L371.913 53.4438Z" fill="#231F20"/>
<path d="M481.116 143.873C474.933 124.45 464.1 106.476 449.805 91.8957C429.87 71.5824 403.357 58.0896 375.129 53.8886L375.607 50.6431C404.528 54.943 431.701 68.7817 452.13 89.6057C466.788 104.548 477.885 122.967 484.233 142.885L481.1 143.873H481.116Z" fill="#231F20"/>
<path d="M239.824 241.008C237.467 235.983 235.422 230.761 233.724 225.489L236.857 224.484C238.505 229.624 240.5 234.715 242.809 239.608L239.841 241.008H239.824Z" fill="#231F20"/>
<path d="M309.851 69.4243L308.647 66.3765C314.847 63.9217 321.277 61.9448 327.774 60.4785L328.499 63.6746C322.168 65.0914 315.902 67.019 309.851 69.4078V69.4243Z" fill="#231F20"/>
<path d="M367.313 61.2364C363.883 60.9069 360.404 60.7257 356.958 60.6928C353.908 60.6598 350.841 60.7422 347.807 60.9399L347.593 57.6614C350.709 57.4637 353.858 57.3813 356.975 57.4143C360.503 57.4472 364.081 57.6449 367.61 57.9744L367.296 61.2364H367.313Z" fill="#231F20"/>
<path d="M435.312 89.6881C417.784 74.9433 396.498 65.3715 373.777 62.0107L374.255 58.7651C397.586 62.2083 419.417 72.0273 437.422 87.1675L435.312 89.6717V89.6881Z" fill="#231F20"/>
<path d="M438.972 92.9007C438.577 92.5383 438.164 92.1758 437.769 91.8134L439.945 89.3586C440.357 89.7211 440.769 90.1 441.182 90.4789L438.972 92.9007Z" fill="#231F20"/>
<path d="M473.004 145.587C467.184 127.712 457.142 111.171 443.968 97.7277C442.352 96.0803 440.67 94.4658 438.972 92.9171L441.181 90.4954C442.929 92.0934 444.661 93.7573 446.309 95.4378C459.83 109.244 470.135 126.229 476.121 144.582L473.004 145.603V145.587Z" fill="#231F20"/>
<path d="M430.909 284.238L428.98 281.585C433.349 278.422 437.537 274.929 441.462 271.19L443.721 273.562C439.697 277.401 435.377 280.992 430.893 284.254L430.909 284.238Z" fill="#231F20"/>
<path d="M369.061 307.352L368.781 304.09C378.492 303.233 388.105 301.19 397.355 298.027L398.427 301.124C388.93 304.386 379.053 306.479 369.077 307.352H369.061Z" fill="#231F20"/>
<path d="M320.09 74.4984L319.084 71.3682C324.377 69.6713 329.835 68.3204 335.309 67.3813L335.87 70.6104C330.544 71.533 325.251 72.8345 320.09 74.4984Z" fill="#231F20"/>
<path d="M441.742 107.398C440.571 106.08 439.351 104.779 438.148 103.543C416.647 81.5661 387.808 69.276 356.958 68.9301C351.006 68.8642 344.971 69.2596 339.068 70.1162L338.59 66.8707C344.658 65.9976 350.841 65.5857 356.991 65.6516C388.715 66.014 418.378 78.6501 440.489 101.253C441.742 102.522 442.979 103.856 444.199 105.224L441.742 107.415V107.398Z" fill="#231F20"/>
<path d="M464.579 146.378C460.341 134.038 454.059 122.588 445.93 112.357L448.502 110.314C456.862 120.842 463.325 132.605 467.695 145.307L464.595 146.378H464.579Z" fill="#231F20"/>
<path d="M467.349 155.719C466.821 153.626 466.227 151.518 465.584 149.458L468.717 148.486C469.377 150.595 469.987 152.753 470.531 154.911L467.349 155.702V155.719Z" fill="#231F20"/>
<path d="M429.87 274.699L427.842 272.129C430.926 269.691 433.91 267.071 436.73 264.32C440.868 260.284 444.726 255.885 448.205 251.239L450.844 253.2C447.266 257.961 443.292 262.491 439.038 266.659C436.152 269.476 433.069 272.178 429.887 274.699H429.87Z" fill="#231F20"/>
<path d="M365.252 299.361L365.054 296.083C379.201 295.226 392.887 291.75 405.764 285.737L407.149 288.702C393.909 294.897 379.811 298.472 365.252 299.361Z" fill="#231F20"/>
<path d="M405.286 89.2928C390.446 81.5497 373.727 77.3652 356.958 77.1675C344.444 77.0027 332.077 79.0291 320.222 83.1478L319.134 80.0506C331.352 75.8001 344.048 73.7078 356.991 73.889C374.271 74.1032 391.502 78.4196 406.803 86.3933L405.286 89.3093V89.2928Z" fill="#231F20"/>
<path d="M454.619 143.297C449.426 130.611 441.923 119.194 432.311 109.375C425.171 102.077 417.042 95.8496 408.139 90.8578L409.738 87.9912C418.922 93.1313 427.298 99.5564 434.652 107.085C444.545 117.217 452.278 128.98 457.637 142.061L454.603 143.297H454.619Z" fill="#231F20"/>
<path d="M460.918 165.076C459.797 158.701 458.066 152.391 455.807 146.328L458.89 145.175C461.231 151.435 463.012 157.943 464.166 164.516L460.935 165.093L460.918 165.076Z" fill="#231F20"/>
<path d="M434.289 259.74L431.964 257.417C432.723 256.643 433.481 255.868 434.223 255.078L436.631 257.318C435.872 258.125 435.097 258.933 434.306 259.723L434.289 259.74Z" fill="#231F20"/>
<path d="M362.4 291.256L362.268 287.977C379.581 287.302 396.63 282.244 411.535 273.348L413.217 276.165C397.833 285.341 380.257 290.564 362.383 291.256H362.4Z" fill="#231F20"/>
<path d="M310.609 96.1627L309.125 93.2302C310.115 92.7194 311.121 92.2417 312.143 91.7639L313.528 94.7458C312.555 95.2071 311.582 95.6684 310.609 96.1627Z" fill="#231F20"/>
<path d="M392.359 92.423C381.048 87.9254 369.143 85.553 356.958 85.4048C346.323 85.2565 335.771 86.8216 325.614 90.0342L324.625 86.904C335.111 83.5761 345.994 81.978 357.008 82.1098C369.605 82.2746 381.906 84.7128 393.596 89.3752L392.376 92.423H392.359Z" fill="#231F20"/>
<path d="M440.736 133.84C436.762 127.086 431.964 120.809 426.474 115.191C419.862 108.42 412.327 102.637 404.066 98.008L405.665 95.1414C414.206 99.919 422.005 105.899 428.832 112.901C434.487 118.717 439.45 125.191 443.572 132.176L440.736 133.84Z" fill="#231F20"/>
<path d="M453.399 170.332C451.948 159.59 448.733 149.228 443.853 139.524L446.787 138.042C451.833 148.075 455.164 158.783 456.664 169.887L453.416 170.332H453.399Z" fill="#231F20"/>
<path d="M360.52 283.084L360.454 279.806C384.527 279.262 407.364 269.724 424.759 252.969L427.034 255.325C409.045 272.656 385.434 282.524 360.536 283.084H360.52Z" fill="#231F20"/>
<path d="M445.6 174.665C443.622 154.582 434.767 135.521 420.653 121.006C403.819 103.692 381.197 93.9715 356.959 93.6255C339.102 93.3455 321.69 98.3208 306.586 107.909L304.822 105.141C320.47 95.1906 338.541 90.067 357.008 90.3471C382.12 90.7095 405.566 100.776 423.011 118.716C437.653 133.774 446.837 153.527 448.882 174.335L445.617 174.665H445.6Z" fill="#231F20"/>
<path d="M448.173 197.762L444.924 197.252C445.584 193.1 445.947 188.866 446.013 184.648C446.029 183.479 446.013 182.309 445.996 181.139L449.277 181.057C449.31 182.276 449.31 183.479 449.294 184.698C449.228 189.064 448.849 193.462 448.173 197.762V197.762Z" fill="#231F20"/>
<path d="M359.63 274.864L359.58 271.585C381.938 271.256 403.126 262.458 419.219 246.84C421.197 244.929 423.11 242.886 424.891 240.794L427.397 242.919C425.534 245.094 423.555 247.219 421.511 249.196C404.808 265.407 382.829 274.518 359.63 274.864V274.864Z" fill="#231F20"/>
<path d="M310.197 115.389L308.4 112.637C314.979 108.354 322.118 104.977 329.604 102.604L330.593 105.734C323.388 108.008 316.529 111.253 310.197 115.389V115.389Z" fill="#231F20"/>
<path d="M346.373 102.39L346.01 99.1283C348.22 98.8812 350.478 98.7164 352.721 98.634L352.836 101.912C350.693 101.978 348.516 102.143 346.389 102.39H346.373Z" fill="#231F20"/>
<path d="M368.946 102.934C365.005 102.291 360.965 101.929 356.959 101.879H356.068L356.085 98.5845H357.008C361.18 98.6504 365.368 99.0293 369.473 99.6883L368.946 102.934Z" fill="#231F20"/>
<path d="M401.758 115.899C392.755 109.837 382.779 105.669 372.128 103.51L372.787 100.298C383.868 102.538 394.239 106.888 403.604 113.181L401.774 115.899H401.758Z" fill="#231F20"/>
<path d="M437.603 178.058C436.35 158.882 428.254 140.694 414.816 126.838C412.36 124.318 409.721 121.913 406.968 119.721L409.012 117.151C411.881 119.425 414.635 121.913 417.174 124.548C431.156 138.964 439.566 157.893 440.885 177.844L437.603 178.058V178.058Z" fill="#231F20"/>
<path d="M436.4 210.925L433.3 209.838C436.136 201.716 437.636 193.248 437.768 184.632C437.785 183.511 437.768 182.391 437.768 181.271L441.049 181.188C441.082 182.358 441.082 183.511 441.049 184.681C440.901 193.643 439.335 202.457 436.4 210.909V210.925Z" fill="#231F20"/>
<path d="M358.327 266.626C357.865 266.626 357.403 266.626 356.958 266.626C355.639 266.61 354.32 266.544 353.001 266.461L353.215 263.183C354.485 263.265 355.738 263.315 357.008 263.331C378.129 263.71 398.163 255.753 413.398 240.992C416.91 237.581 420.142 233.842 422.978 229.855L425.649 231.749C422.698 235.901 419.35 239.805 415.69 243.348C400.141 258.389 379.828 266.61 358.327 266.61V266.626Z" fill="#231F20"/>
<path d="M288.053 152.424L285.102 150.974C286.091 148.964 287.163 146.971 288.317 145.06L291.136 146.74C290.032 148.569 288.993 150.48 288.053 152.407V152.424Z" fill="#231F20"/>
<path d="M292.851 144.022L290.114 142.209C290.724 141.27 291.367 140.348 292.027 139.442L294.698 141.369C294.071 142.242 293.461 143.132 292.868 144.022H292.851Z" fill="#231F20"/>
<path d="M305.449 129.392L303.256 126.954C308.268 122.44 313.841 118.601 319.843 115.521L321.343 118.437C315.605 121.385 310.263 125.076 305.449 129.392Z" fill="#231F20"/>
<path d="M365.153 110.71C364.082 110.578 363.026 110.463 361.938 110.364L362.218 107.085C363.34 107.184 364.461 107.3 365.565 107.448L365.153 110.71V110.71Z" fill="#231F20"/>
<path d="M380.817 114.466C378.789 113.741 376.728 113.099 374.651 112.555L375.492 109.375C377.652 109.952 379.812 110.611 381.922 111.369L380.817 114.466V114.466Z" fill="#231F20"/>
<path d="M358.327 258.405C357.865 258.405 357.404 258.405 356.942 258.405C355.969 258.389 355.013 258.356 354.057 258.29L354.238 255.012C355.161 255.061 356.068 255.094 356.991 255.11C375.904 255.44 393.876 248.372 407.562 235.192C421.379 221.864 429.178 203.924 429.524 184.648C429.87 165.192 422.566 146.723 408.98 132.671C407.133 130.759 405.154 128.914 403.093 127.217L405.187 124.697C407.331 126.476 409.392 128.387 411.337 130.397C425.534 145.092 433.168 164.384 432.805 184.714C432.443 204.863 424.297 223.627 409.837 237.565C395.855 251.041 377.602 258.422 358.311 258.422L358.327 258.405Z" fill="#231F20"/>
<path d="M288.68 181.551L285.399 181.337C286.553 163.561 294.236 147.004 307.015 134.697C319.711 122.473 336.364 115.504 353.908 115.076L353.991 118.354C337.271 118.766 321.393 125.422 309.29 137.069C297.089 148.799 289.768 164.599 288.68 181.551V181.551Z" fill="#231F20"/>
<path d="M411.107 148.585C408.798 144.977 406.127 141.583 403.143 138.486C399.433 134.631 395.245 131.237 390.71 128.387L392.458 125.603C397.223 128.585 401.626 132.16 405.517 136.213C408.65 139.458 411.453 143.033 413.877 146.822L411.107 148.585V148.585Z" fill="#231F20"/>
<path d="M415.69 157.053C414.833 155.109 413.843 153.182 412.788 151.32L415.641 149.689C416.762 151.649 417.784 153.676 418.691 155.702L415.69 157.037V157.053Z" fill="#231F20"/>
<path d="M359.514 250.152L359.448 246.873C375.261 246.577 390.282 240.349 401.741 229.361C414.009 217.598 420.934 201.716 421.28 184.648C421.428 177.301 420.324 170.052 417.999 163.066L421.115 162.029C423.555 169.36 424.71 177.004 424.561 184.714C424.198 202.655 416.91 219.36 404.017 231.733C391.947 243.315 376.151 249.855 359.514 250.168V250.152Z" fill="#231F20"/>
<path d="M293.973 193.775C293.593 190.76 293.445 187.68 293.511 184.632C293.874 167.778 300.733 152.127 312.852 140.529C324.839 129.063 340.536 122.951 357.024 123.313C359.63 123.363 362.268 123.593 364.856 123.989L364.362 127.234C361.905 126.855 359.415 126.641 356.942 126.592C341.327 126.262 326.471 132.045 315.127 142.901C303.651 153.89 297.138 168.734 296.792 184.714C296.726 187.597 296.875 190.513 297.237 193.38L293.973 193.775V193.775Z" fill="#231F20"/>
<path d="M359.217 241.914L359.168 238.636C372.886 238.422 385.945 233.051 395.921 223.529C406.622 213.314 412.706 199.508 413.036 184.632C413.382 169.574 407.792 155.257 397.322 144.302C390.826 137.514 382.664 132.374 373.694 129.442L374.717 126.328C384.181 129.425 392.821 134.862 399.68 142.028C410.76 153.61 416.663 168.767 416.3 184.698C415.938 200.447 409.507 215.077 398.163 225.884C387.578 235.983 373.744 241.667 359.184 241.898L359.217 241.914Z" fill="#231F20"/>
<path d="M358.327 233.694C357.865 233.694 357.404 233.694 356.942 233.677H356.513L356.629 230.382H357.024C369.358 230.761 381.097 226.23 390.1 217.697C399.251 209.047 404.462 197.301 404.808 184.632C405.154 171.782 400.422 159.524 391.502 150.134C382.45 140.612 370.182 135.175 356.942 134.829C343.52 134.499 330.742 139.425 320.948 148.734C311.022 158.174 305.366 170.941 305.036 184.714C304.888 190.793 305.795 196.823 307.74 202.606L304.624 203.644C302.547 197.499 301.59 191.09 301.739 184.632C302.101 169.986 308.103 156.394 318.672 146.345C329.093 136.443 342.712 131.155 357.008 131.55C371.122 131.913 384.197 137.712 393.86 147.877C403.39 157.91 408.435 170.991 408.073 184.731C407.71 198.273 402.12 210.843 392.343 220.102C383.043 228.916 370.99 233.71 358.31 233.71L358.327 233.694Z" fill="#231F20"/>
<path d="M358.327 225.456C357.865 225.456 357.387 225.456 356.925 225.44C355.079 225.374 353.216 225.193 351.402 224.88L351.962 221.651C353.644 221.931 355.359 222.112 357.041 222.178C367.165 222.524 376.827 218.866 384.28 211.881C391.864 204.78 396.234 195.093 396.564 184.632C396.91 173.973 393.035 163.791 385.665 155.95C378.163 147.976 367.956 143.412 356.942 143.066C345.713 142.72 335.012 146.806 326.785 154.566C318.425 162.441 313.627 173.149 313.297 184.731C313.149 190.019 313.94 195.242 315.671 200.266L312.572 201.337C310.708 195.95 309.851 190.332 310.016 184.632C310.379 172.194 315.539 160.661 324.542 152.177C333.413 143.824 344.971 139.425 357.057 139.788C368.962 140.15 379.976 145.093 388.072 153.692C396.036 162.16 400.224 173.182 399.861 184.714C399.499 196.065 394.766 206.56 386.539 214.253C378.789 221.502 368.83 225.456 358.343 225.456H358.327Z" fill="#231F20"/>
<path d="M358.261 217.219C357.816 217.219 357.354 217.219 356.909 217.186C353.644 217.054 350.429 216.428 347.362 215.324L348.467 212.227C351.22 213.215 354.122 213.775 357.057 213.907C364.823 214.253 372.655 211.37 378.459 206.016C384.395 200.546 387.99 192.737 388.319 184.582C388.649 176.246 385.549 167.926 379.828 161.732C373.974 155.406 365.631 151.6 356.925 151.27C348.038 150.941 339.167 154.252 332.605 160.364C325.795 166.691 321.871 175.34 321.541 184.698C321.343 190.513 322.58 196.378 325.152 201.634L322.201 203.083C319.398 197.334 318.029 190.941 318.243 184.582C318.606 174.335 322.91 164.879 330.363 157.959C337.568 151.27 347.28 147.63 357.041 147.992C366.604 148.354 375.788 152.539 382.235 159.491C388.55 166.312 391.963 175.505 391.601 184.698C391.238 193.709 387.264 202.358 380.685 208.405C374.585 214.023 366.472 217.186 358.261 217.186V217.219Z" fill="#231F20"/>
<path d="M358.261 208.998C357.799 208.998 357.338 208.998 356.876 208.965C350.561 208.603 344.576 205.72 340.437 201.057C336.43 196.527 334.336 190.53 334.716 184.582C335.078 178.816 337.749 173.363 342.036 169.623C346.191 165.999 351.666 164.137 357.074 164.516C362.301 164.879 367.231 167.333 370.594 171.238C373.843 175.011 375.475 179.953 375.079 184.813C374.7 189.492 372.474 193.891 368.946 196.856C365.565 199.706 361.13 201.123 356.81 200.728C352.671 200.349 348.797 198.322 346.224 195.176C343.751 192.177 342.564 188.273 342.96 184.5C343.339 180.892 345.153 177.581 347.923 175.373C350.544 173.281 353.925 172.325 357.173 172.737C360.24 173.133 363.026 174.731 364.84 177.119C366.538 179.376 367.264 182.227 366.835 184.912C366.439 187.433 365.038 189.69 363.01 191.09C361.114 192.391 358.789 192.886 356.629 192.424C354.634 191.996 352.902 190.793 351.913 189.113C350.99 187.564 350.759 185.752 351.286 184.138C351.765 182.655 352.82 181.485 354.172 180.925C355.425 180.414 356.794 180.513 357.849 181.189C358.888 181.848 359.465 182.984 359.333 184.105C359.184 185.34 358.162 186.279 356.975 186.279V183.001C356.464 183.001 356.118 183.363 356.068 183.726C356.052 183.874 356.085 183.973 356.118 183.989C355.969 183.891 355.705 183.858 355.409 183.989C354.963 184.171 354.601 184.599 354.419 185.143C354.188 185.868 354.304 186.708 354.749 187.449C355.277 188.339 356.216 188.981 357.321 189.212C358.607 189.492 359.992 189.179 361.147 188.388C362.449 187.499 363.339 186.032 363.603 184.385C363.9 182.556 363.389 180.629 362.235 179.08C360.965 177.383 358.97 176.263 356.777 175.983C354.403 175.686 351.929 176.395 349.984 177.927C347.906 179.574 346.538 182.095 346.241 184.83C345.928 187.746 346.851 190.744 348.764 193.083C350.792 195.555 353.842 197.153 357.123 197.449C360.586 197.779 364.131 196.625 366.852 194.335C369.721 191.93 371.534 188.355 371.831 184.533C372.144 180.53 370.792 176.46 368.121 173.363C365.318 170.118 361.229 168.075 356.86 167.778C352.309 167.449 347.708 169.03 344.213 172.078C340.585 175.258 338.31 179.887 338.013 184.78C337.683 189.854 339.481 194.994 342.91 198.883C346.472 202.902 351.633 205.374 357.074 205.687C362.696 206 368.368 204.006 372.639 200.2C377.041 196.263 379.745 190.579 380.059 184.582C380.389 178.421 378.163 172.21 373.958 167.564C369.638 162.786 363.405 159.854 356.876 159.541C350.149 159.195 343.421 161.65 338.392 166.23C333.215 170.925 330.066 177.68 329.753 184.747C329.538 189.327 330.511 193.957 332.556 198.108L329.604 199.558C327.329 194.912 326.24 189.739 326.471 184.599C326.834 176.675 330.379 169.08 336.183 163.808C341.855 158.651 349.44 155.9 357.041 156.262C364.428 156.625 371.485 159.936 376.398 165.373C381.18 170.661 383.703 177.729 383.34 184.764C382.977 191.617 379.877 198.125 374.815 202.639C370.248 206.724 364.279 208.998 358.245 208.998H358.261Z" fill="#231F20"/>
<path d="M209.107 300.679C183.483 267.615 169.551 226.412 169.848 184.648V183.1L173.145 183.149V184.665C172.832 225.687 186.534 266.181 211.712 298.67L209.107 300.679V300.679Z" fill="#231F20"/>
<path d="M200.137 90.199L197.334 88.4856C197.911 87.5466 198.504 86.6075 199.098 85.6685L201.868 87.4312C201.291 88.3538 200.697 89.2764 200.137 90.199Z" fill="#231F20"/>
<path d="M203.649 84.6798L200.912 82.8675C202.132 81.0224 203.402 79.1772 204.688 77.3979L207.359 79.309C206.106 81.0718 204.852 82.884 203.649 84.6798V84.6798Z" fill="#231F20"/>
<path d="M209.271 76.6733L206.633 74.7128C209.271 71.1707 212.058 67.6781 214.943 64.3337L217.433 66.4754C214.597 69.7704 211.86 73.1971 209.271 76.6733Z" fill="#231F20"/>
<path d="M235.851 47.9413L233.691 45.4701C255.406 26.5406 281.639 12.7348 309.538 5.56836L310.362 8.74797C282.958 15.7827 257.187 29.3413 235.851 47.9413Z" fill="#231F20"/>
<path d="M425.666 8.15509C422.649 6.95244 419.549 5.81568 416.465 4.77778L417.521 1.66406C420.653 2.71844 423.819 3.88814 426.886 5.10727L425.682 8.15509H425.666Z" fill="#231F20"/>
<path d="M443.49 16.3099C441.561 15.305 439.599 14.3165 437.636 13.3939L439.054 10.4285C441.05 11.384 443.045 12.389 445.007 13.4104L443.49 16.3264V16.3099Z" fill="#231F20"/>
<path d="M543.195 157.679C537.672 117.728 519.007 79.8857 490.614 51.1209C478.346 38.699 464.43 28.0399 449.228 19.4236L450.844 16.5735C466.31 25.338 480.473 36.1784 492.939 48.8144C521.826 78.0735 540.821 116.575 546.427 157.234L543.179 157.679H543.195Z" fill="#231F20"/>
<path d="M205.116 308.917C176.74 273.826 161.29 229.69 161.587 184.648C161.587 183.989 161.587 183.347 161.603 182.688L164.885 182.754C164.885 183.396 164.868 184.039 164.868 184.681C164.571 228.965 179.757 272.359 207.656 306.857L205.1 308.917H205.116Z" fill="#231F20"/>
<path d="M165.874 166.46L162.609 166.131C162.823 163.956 163.104 161.732 163.401 159.524L166.649 159.969C166.352 162.144 166.088 164.319 165.874 166.46V166.46Z" fill="#231F20"/>
<path d="M187.803 95.092L184.918 93.5269C191.217 81.8299 198.752 70.7589 207.309 60.594L209.816 62.7028C201.406 72.6864 194.003 83.5762 187.803 95.0755V95.092Z" fill="#231F20"/>
<path d="M235.406 37.5457L233.328 35.0086C252.834 19.1435 274.895 7.36407 298.936 0.0163574L299.892 3.14655C276.264 10.3789 254.565 21.9606 235.406 37.5457V37.5457Z" fill="#231F20"/>
<path d="M552.726 169.887C549.494 123.033 529.51 78.782 496.434 45.3055C487.052 35.7996 476.648 27.2163 465.535 19.8027L467.365 17.0679C478.676 24.6133 489.245 33.3284 498.776 42.9826C532.396 77.0193 552.726 122.012 556.007 169.656L552.726 169.887Z" fill="#231F20"/>
<path d="M198.735 314.139C169.172 277.582 153.046 231.601 153.359 184.665C153.359 182.589 153.425 180.497 153.491 178.421L156.772 178.536C156.69 180.579 156.657 182.622 156.64 184.665C156.344 230.843 172.189 276.099 201.291 312.064L198.735 314.123V314.139Z" fill="#231F20"/>
<path d="M157.679 165.505L154.414 165.175C154.645 162.984 154.909 160.777 155.206 158.585L158.454 159.03C158.157 161.188 157.91 163.347 157.679 165.521V165.505Z" fill="#231F20"/>
<path d="M174.794 102.72L171.81 101.352C172.271 100.347 172.733 99.3424 173.211 98.3374L176.179 99.7542C175.701 100.743 175.256 101.731 174.794 102.72V102.72Z" fill="#231F20"/>
<path d="M177.614 96.8216L174.679 95.3554C183.599 77.4639 195.091 61.0386 208.826 46.5244L211.217 48.7814C197.697 63.065 186.402 79.2267 177.63 96.8216H177.614Z" fill="#231F20"/>
<path d="M220.5 39.5721L218.274 37.1668C219.082 36.409 219.907 35.6676 220.731 34.9263L222.924 37.3645C222.116 38.0894 221.308 38.8308 220.5 39.5721V39.5721Z" fill="#231F20"/>
<path d="M238.159 25.0251L236.214 22.3726C248.267 13.5422 261.342 6.02975 275.044 0.065918L276.363 3.08079C262.875 8.94577 250.031 16.3264 238.159 25.0251V25.0251Z" fill="#231F20"/>
<path d="M564.697 186.658L561.415 186.609C561.415 185.966 561.432 185.307 561.432 184.665C561.778 130.002 540.772 78.4359 502.271 39.4733C493.714 30.8076 484.315 22.8668 474.373 15.8651L476.269 13.1797C486.376 20.2968 495.923 28.3693 504.629 37.1668C543.74 76.7555 565.092 129.145 564.746 184.681C564.746 185.34 564.746 185.999 564.729 186.658H564.697Z" fill="#231F20"/>
<path d="M563.031 209.838L559.767 209.426C560.179 206.197 560.525 202.919 560.789 199.673L564.07 199.937C563.806 203.232 563.46 206.56 563.031 209.855V209.838Z" fill="#231F20"/>
<path d="M193.673 320.976C162.048 282.673 144.785 234.253 145.098 184.665V182.902L148.396 182.951V184.698C148.066 233.529 165.049 281.19 196.196 318.9L193.657 320.993L193.673 320.976Z" fill="#231F20"/>
<path d="M149.995 160.117L146.73 159.706C146.862 158.602 147.011 157.514 147.176 156.411L150.424 156.872C150.275 157.943 150.127 159.03 149.995 160.117V160.117Z" fill="#231F20"/>
<path d="M164.142 106.542L161.108 105.29C170.029 83.6915 182.379 63.8725 197.828 46.3599L200.301 48.5345C185.099 65.7835 172.947 85.2895 164.159 106.558L164.142 106.542Z" fill="#231F20"/>
<path d="M202.462 46.0961L200.038 43.8885C202.577 41.1042 205.215 38.353 207.903 35.7005C209.931 33.6906 212.025 31.7137 214.135 29.7861L216.345 32.2079C214.267 34.086 212.206 36.0465 210.211 38.0235C207.573 40.6265 204.968 43.3283 202.478 46.0796L202.462 46.0961Z" fill="#231F20"/>
<path d="M236.758 15.8816L234.878 13.1962C241.209 8.76456 247.838 4.62941 254.615 0.922607L256.198 3.80568C249.536 7.46306 242.99 11.5323 236.758 15.8981V15.8816Z" fill="#231F20"/>
<path d="M569.659 180.167C568.835 124.993 546.971 72.9664 508.108 33.6413C497.226 22.6362 485.123 12.8008 472.13 4.39873L473.911 1.64746C487.102 10.1813 499.386 20.165 510.433 31.3348C549.906 71.253 572.1 124.087 572.941 180.118L569.659 180.167V180.167Z" fill="#231F20"/>
<path d="M572.05 203.331L568.786 203.034C569.082 199.788 569.313 196.494 569.462 193.248L572.743 193.396C572.594 196.691 572.347 200.036 572.05 203.331Z" fill="#231F20"/>
<path d="M570.401 216.51L567.153 216C567.664 212.754 568.093 209.492 568.439 206.28L571.704 206.626C571.358 209.887 570.913 213.215 570.401 216.494V216.51Z" fill="#231F20"/>
<path d="M189.37 328.654C177.168 314.304 166.847 298.422 158.668 281.47L161.62 280.053C169.666 296.759 179.839 312.41 191.86 326.545L189.353 328.67L189.37 328.654Z" fill="#231F20"/>
<path d="M149.699 260.036C141.454 237.005 137.151 212.919 136.871 188.487L140.152 188.454C140.432 212.54 144.686 236.247 152.798 258.949L149.699 260.053V260.036Z" fill="#231F20"/>
<path d="M141.817 159.08L138.552 158.668C138.833 156.477 139.13 154.285 139.476 152.094L142.724 152.605C142.394 154.763 142.081 156.921 141.817 159.08V159.08Z" fill="#231F20"/>
<path d="M150.193 120.809L147.06 119.82C156.162 91.0392 170.787 64.9103 190.557 42.1423L193.03 44.3005C173.557 66.7226 159.147 92.4725 150.177 120.809H150.193Z" fill="#231F20"/>
<path d="M195.207 41.8291L192.766 39.638C195.751 36.3101 198.884 33.0152 202.066 29.8685C205.149 26.8207 208.381 23.8223 211.646 20.9722L213.806 23.4434C210.59 26.2605 207.425 29.2095 204.374 32.2079C201.225 35.3051 198.142 38.5507 195.207 41.8291V41.8291Z" fill="#231F20"/>
<path d="M223.897 15.1238L221.885 12.5208C227.112 8.46805 232.602 4.61298 238.176 1.05444L239.94 3.82219C234.449 7.3313 229.041 11.1205 223.897 15.1073V15.1238Z" fill="#231F20"/>
<path d="M581.053 191.848L577.772 191.716C577.854 189.343 577.92 186.971 577.92 184.648C578.266 125.586 555.545 69.8855 513.928 27.8092C506.509 20.3132 498.479 13.2785 490.07 6.91928L492.048 4.2998C500.589 10.7579 508.735 17.8914 516.253 25.5027C558.48 68.2051 581.548 124.73 581.201 184.665C581.201 187.021 581.135 189.426 581.037 191.848H581.053Z" fill="#231F20"/>
<path d="M576.7 228.059L573.485 227.4C575.216 218.883 576.469 210.168 577.178 201.518L580.459 201.782C579.734 210.563 578.464 219.41 576.7 228.059V228.059Z" fill="#231F20"/>
<path d="M186.418 337.83C176.872 327.088 168.298 315.408 160.944 303.085L163.763 301.404C171.018 313.546 179.46 325.078 188.875 335.655L186.418 337.83V337.83Z" fill="#231F20"/>
<path d="M136.425 245.193C136.145 244.122 135.865 243.051 135.585 241.98L138.767 241.173C139.031 242.227 139.311 243.282 139.591 244.336L136.425 245.193Z" fill="#231F20"/>
<path d="M134.793 238.751C133.012 231.239 131.594 223.561 130.572 215.917L133.82 215.489C134.826 223.018 136.211 230.596 137.975 237.993L134.777 238.751H134.793Z" fill="#231F20"/>
<path d="M128.709 192.77C128.643 190.563 128.61 188.355 128.61 186.131H131.891C131.891 188.306 131.924 190.497 131.99 192.672L128.709 192.77Z" fill="#231F20"/>
<path d="M134.249 153.528L131.001 153.05C131.166 151.963 131.331 150.859 131.512 149.771L134.76 150.299C134.595 151.37 134.414 152.457 134.265 153.528H134.249Z" fill="#231F20"/>
<path d="M135.881 143.857L132.65 143.247C138.091 114.779 148.742 87.9583 164.324 63.5264L167.094 65.2892C151.743 89.3587 141.224 115.801 135.865 143.857H135.881Z" fill="#231F20"/>
<path d="M182.445 44.0862L179.906 42.0104C180.598 41.1537 181.307 40.297 182.016 39.4568L184.539 41.5655C183.83 42.4058 183.137 43.246 182.445 44.0862Z" fill="#231F20"/>
<path d="M193.245 31.8127L190.854 29.5557C192.602 27.7105 194.415 25.8488 196.245 24.0531C199.131 21.203 202.148 18.3858 205.166 15.7004L207.342 18.1552C204.358 20.8076 201.39 23.5753 198.554 26.3925C196.757 28.1718 194.976 29.984 193.245 31.8127V31.8127Z" fill="#231F20"/>
<path d="M209.799 15.997L207.656 13.5093C213.08 8.8305 218.802 4.36586 224.655 0.230713L226.551 2.91609C220.78 7.00181 215.141 11.4005 209.799 16.0135V15.997Z" fill="#231F20"/>
<path d="M584.45 155.34C578.266 105.273 555.298 57.9251 519.765 22.0103C516.781 18.9954 513.698 16.0464 510.581 13.2293L512.791 10.791C515.957 13.6576 519.089 16.656 522.107 19.7038C558.15 56.1294 581.465 104.153 587.714 154.945L584.45 155.34V155.34Z" fill="#231F20"/>
<path d="M585.159 161.831C585.06 160.744 584.945 159.656 584.829 158.569L588.094 158.207C588.209 159.31 588.325 160.414 588.424 161.501L585.159 161.815V161.831Z" fill="#231F20"/>
<path d="M586.164 184.714V184.665C586.197 179.245 586.032 173.775 585.67 168.355L588.951 168.141C589.314 173.627 589.478 179.195 589.445 184.681L586.164 184.714V184.714Z" fill="#231F20"/>
<path d="M586.379 221.057L583.147 220.53C583.328 219.459 583.493 218.372 583.658 217.301L586.906 217.795C586.741 218.899 586.56 219.986 586.395 221.074L586.379 221.057Z" fill="#231F20"/>
<path d="M583.84 234.089L580.641 233.364C581.35 230.168 582.009 226.939 582.586 223.743L585.818 224.319C585.241 227.548 584.582 230.843 583.856 234.072L583.84 234.089Z" fill="#231F20"/>
<path d="M201.984 364.782C201.143 364.058 200.318 363.333 199.494 362.591L201.687 360.153C202.495 360.878 203.319 361.603 204.144 362.311L201.984 364.782V364.782Z" fill="#231F20"/>
<path d="M187.523 351.109C176.74 340.021 166.995 327.83 158.569 314.864L161.323 313.085C169.633 325.869 179.229 337.896 189.865 348.835L187.507 351.125L187.523 351.109Z" fill="#231F20"/>
<path d="M120.366 186.23V184.665C120.399 179.673 120.58 174.632 120.926 169.656L124.207 169.887C123.861 174.796 123.68 179.772 123.647 184.681V186.23H120.366Z" fill="#231F20"/>
<path d="M129.451 134.302L126.252 133.577C132.171 107.563 142.378 82.917 156.574 60.3467L159.361 62.093C145.362 84.3503 135.288 108.65 129.451 134.302Z" fill="#231F20"/>
<path d="M172.502 43.3449L169.913 41.335C173.294 36.9857 176.872 32.6858 180.548 28.6001L182.989 30.7912C179.361 34.8275 175.849 39.0615 172.502 43.3449V43.3449Z" fill="#231F20"/>
<path d="M185.182 28.3529L182.758 26.1289C185.231 23.4435 187.804 20.7911 190.392 18.221C196.427 12.2572 202.857 6.57341 209.486 1.30151L211.53 3.87156C204.984 9.06109 198.653 14.679 192.701 20.5604C190.145 23.081 187.606 25.717 185.165 28.3529H185.182Z" fill="#231F20"/>
<path d="M592.776 155.554C586.758 104.548 563.823 56.0139 528.208 18.88L530.582 16.6064C566.692 54.2511 589.924 103.461 596.041 155.175L592.776 155.554V155.554Z" fill="#231F20"/>
<path d="M594.689 221.288L591.44 220.777C592.133 216.477 592.71 212.112 593.155 207.795L596.42 208.141C595.975 212.507 595.381 216.939 594.689 221.288Z" fill="#231F20"/>
<path d="M592.232 234.336L589.017 233.644C589.248 232.573 589.479 231.519 589.693 230.448L592.908 231.107C592.694 232.194 592.463 233.265 592.232 234.352V234.336Z" fill="#231F20"/>
<path d="M194.3 369C190.475 365.59 186.715 362.031 183.104 358.39C176.327 351.553 169.897 344.239 163.978 336.644L166.566 334.634C172.403 342.113 178.751 349.329 185.429 356.084C188.991 359.675 192.7 363.201 196.476 366.562L194.283 369.016L194.3 369Z" fill="#231F20"/>
<path d="M115.502 179.162L112.22 179.063C112.435 171.353 113.028 163.561 113.968 155.917L117.233 156.328C116.293 163.874 115.716 171.551 115.502 179.162V179.162Z" fill="#231F20"/>
<path d="M121.124 133.758L117.909 133.05C123.927 105.916 134.447 80.2153 149.155 56.6565L151.941 58.3863C137.431 81.6321 127.044 106.987 121.108 133.758H121.124Z" fill="#231F20"/>
<path d="M159.196 47.4801L156.508 45.602C161.57 38.386 167.094 31.3678 172.931 24.7615L175.404 26.9361C169.666 33.4601 164.208 40.3795 159.212 47.4965L159.196 47.4801Z" fill="#231F20"/>
<path d="M179.774 22.0596L177.366 19.819C178.125 19.0117 178.883 18.2045 179.642 17.3972L182.016 19.6707C181.257 20.4615 180.516 21.2523 179.774 22.0596Z" fill="#231F20"/>
<path d="M184.308 17.3313L181.967 15.0413C182.824 14.1517 183.698 13.2785 184.588 12.4218C188.414 8.64913 192.42 4.94233 196.476 1.41675L198.62 3.90443C194.613 7.38058 190.656 11.0215 186.88 14.7612C186.006 15.6179 185.149 16.4746 184.291 17.3478L184.308 17.3313Z" fill="#231F20"/>
<path d="M600.79 153.033C594.508 102.604 573.139 56.0139 538.958 18.3033L541.398 16.0957C576.024 54.317 597.69 101.533 604.054 152.638L600.79 153.05V153.033Z" fill="#231F20"/>
<path d="M602.373 225.324L599.141 224.764C600.608 216.197 601.631 207.449 602.175 198.767L605.456 198.965C604.912 207.762 603.873 216.626 602.373 225.308V225.324Z" fill="#231F20"/>
<path d="M599.784 238.339L596.585 237.614C597.311 234.435 597.97 231.206 598.564 227.993L601.795 228.586C601.185 231.832 600.526 235.11 599.784 238.323V238.339Z" fill="#231F20"/>
<path d="M107.406 174.928L104.125 174.78C104.322 170.398 104.636 165.933 105.064 161.551L108.329 161.864C107.917 166.197 107.604 170.595 107.406 174.928Z" fill="#231F20"/>
<path d="M112.913 132.786L109.698 132.094C118.189 93.1973 136.063 56.3764 161.339 25.6511L163.879 27.7434C138.915 58.0733 121.289 94.4 112.913 132.786Z" fill="#231F20"/>
<path d="M165.973 25.2228L163.466 23.0976C168.298 17.3974 173.426 11.8289 178.751 6.57349L179.576 5.74976L181.868 8.08916L181.043 8.89642C175.8 14.0859 170.721 19.572 165.956 25.2064L165.973 25.2228Z" fill="#231F20"/>
<path d="M601.696 115.652C592.281 81.6815 576.238 50.5773 553.995 23.1964L556.551 21.1206C579.074 48.8475 595.332 80.3636 604.862 114.779L601.696 115.652Z" fill="#231F20"/>
<path d="M607.896 144.434C606.561 135.85 604.763 127.218 602.554 118.799L605.736 117.959C607.979 126.493 609.809 135.224 611.161 143.923L607.913 144.434H607.896Z" fill="#231F20"/>
<path d="M614.096 190.2L610.815 190.118C610.848 189.03 610.864 187.943 610.881 186.839L614.162 186.889C614.162 187.993 614.129 189.096 614.096 190.2V190.2Z" fill="#231F20"/>
<path d="M610.551 226.478L607.319 225.934C609.15 215.209 610.287 204.27 610.716 193.396L613.997 193.528C613.568 204.533 612.398 215.637 610.551 226.494V226.478Z" fill="#231F20"/>
<path d="M607.979 239.492L604.78 238.768C605.011 237.697 605.258 236.642 605.472 235.572L608.688 236.247C608.457 237.334 608.226 238.405 607.979 239.492Z" fill="#231F20"/>
<path d="M99.3924 170.348L96.1112 170.15C96.375 165.752 96.7543 161.304 97.2489 156.938L100.514 157.3C100.035 161.617 99.6562 165.999 99.3924 170.348V170.348Z" fill="#231F20"/>
<path d="M103.449 137.877L100.217 137.267C109.154 90.2484 130.852 46.6399 162.939 11.1699L165.379 13.3775C133.688 48.4027 112.27 91.4511 103.449 137.877V137.877Z" fill="#231F20"/>
<path d="M560.706 18.3857C559.338 16.6888 557.936 15.0084 556.518 13.3445L559.024 11.2192C560.459 12.8997 561.877 14.613 563.262 16.3264L560.706 18.3857V18.3857Z" fill="#231F20"/>
<path d="M609.759 113.84C600.707 80.9731 585.571 50.5773 564.779 23.5259L567.384 21.5325C588.44 48.9134 603.758 79.6881 612.925 112.967L609.759 113.84V113.84Z" fill="#231F20"/>
<path d="M618.746 168.668C618.614 166.493 618.465 164.302 618.3 162.127L621.582 161.864C621.763 164.071 621.911 166.263 622.043 168.487L618.762 168.668H618.746Z" fill="#231F20"/>
<path d="M622.423 185.027H619.141V184.665C619.158 180.414 619.075 176.147 618.894 171.93L622.175 171.781C622.357 176.048 622.439 180.381 622.423 184.665V185.027Z" fill="#231F20"/>
<path d="M622.01 198.306L618.729 198.125C618.795 197.037 618.844 195.95 618.894 194.846L622.175 194.994C622.126 196.098 622.076 197.202 622.01 198.306V198.306Z" fill="#231F20"/>
<path d="M618.086 231.206L614.854 230.613C616.025 224.204 616.981 217.664 617.674 211.173L620.939 211.519C620.23 218.092 619.273 224.715 618.086 231.206V231.206Z" fill="#231F20"/>
<path d="M616.107 240.942L612.892 240.234C613.37 238.109 613.815 235.967 614.244 233.825L617.476 234.451C617.047 236.626 616.602 238.784 616.107 240.942Z" fill="#231F20"/>
<path d="M596.684 297.253L593.716 295.836C597.92 287.005 601.68 277.829 604.862 268.57L607.962 269.641C604.73 279.015 600.938 288.307 596.667 297.253H596.684Z" fill="#231F20"/>
<path d="M91.2306 168.767L87.9494 168.552C91.4944 113.824 111.347 62.1919 145.362 19.2095L147.934 21.2523C114.347 63.7076 94.7426 114.713 91.2306 168.783V168.767Z" fill="#231F20"/>
<path d="M149.995 18.6824L147.44 16.623C148.825 14.9097 150.243 13.2128 151.677 11.5159L154.183 13.6411C152.765 15.305 151.364 16.9855 149.995 18.6824V18.6824Z" fill="#231F20"/>
<path d="M615.102 102.818C605.604 72.4226 590.979 44.2015 571.622 18.9129L574.227 16.9194C593.832 42.5211 608.638 71.0882 618.251 101.846L615.118 102.818H615.102Z" fill="#231F20"/>
<path d="M620.279 121.781C619.042 116.509 617.624 111.188 616.058 105.965L619.207 105.026C620.79 110.314 622.224 115.702 623.477 121.04L620.279 121.781V121.781Z" fill="#231F20"/>
<path d="M630.172 200.019L626.891 199.821C627.204 194.813 627.369 189.706 627.385 184.665C627.385 182.062 627.385 179.459 627.319 176.905L630.601 176.823C630.666 179.409 630.683 182.045 630.666 184.665C630.65 189.772 630.469 194.945 630.155 200.003L630.172 200.019Z" fill="#231F20"/>
<path d="M629.034 213.232L625.77 212.869C625.885 211.782 626.001 210.695 626.116 209.607L629.381 209.937C629.265 211.041 629.166 212.145 629.034 213.232Z" fill="#231F20"/>
<path d="M626.726 229.641L623.494 229.081C623.676 228.01 623.857 226.922 624.022 225.852L627.27 226.362C627.105 227.45 626.924 228.537 626.726 229.624V229.641Z" fill="#231F20"/>
<path d="M624.863 239.41L621.647 238.735C621.878 237.664 622.093 236.593 622.307 235.522L625.539 236.148C625.324 237.236 625.11 238.306 624.879 239.394L624.863 239.41Z" fill="#231F20"/>
<path d="M623.428 245.885L620.229 245.127C620.477 244.056 620.724 243.002 620.955 241.931L624.17 242.639C623.923 243.726 623.692 244.797 623.428 245.868V245.885Z" fill="#231F20"/>
<path d="M599.058 310.894L596.156 309.362C603.791 294.913 610.139 279.674 615.036 264.073L618.168 265.061C613.222 280.844 606.791 296.264 599.058 310.894V310.894Z" fill="#231F20"/>
<path d="M83.0853 166.954L79.8041 166.724C83.5964 112.127 103.234 60.3632 136.59 17.0183L139.195 19.0117C106.235 61.8459 86.8282 113 83.0688 166.938L83.0853 166.954Z" fill="#231F20"/>
<path d="M141.224 16.4418L138.651 14.4154C140.02 12.6855 141.405 10.9557 142.823 9.25879L145.362 11.3511C143.961 13.0315 142.592 14.7284 141.24 16.4418H141.224Z" fill="#231F20"/>
<path d="M580.558 17.0843C579.915 16.2112 579.256 15.338 578.596 14.4649L581.201 12.4714C581.877 13.3446 582.537 14.2342 583.196 15.1239L580.558 17.0843V17.0843Z" fill="#231F20"/>
<path d="M622.324 98.288C613.618 71.1706 600.872 45.6349 584.417 22.3726L587.104 20.478C603.758 44.0039 616.652 69.8527 625.456 97.283L622.324 98.288Z" fill="#231F20"/>
<path d="M630.469 130.002C629.628 125.718 628.688 121.418 627.649 117.201L630.848 116.427C631.887 120.693 632.843 125.043 633.701 129.376L630.469 130.002V130.002Z" fill="#231F20"/>
<path d="M636.734 218.438L633.47 218.026C633.882 214.797 634.228 211.519 634.525 208.257L637.79 208.553C637.493 211.848 637.13 215.176 636.718 218.438H636.734Z" fill="#231F20"/>
<path d="M635.827 224.995L632.579 224.517C632.744 223.43 632.892 222.359 633.041 221.271L636.289 221.716C636.141 222.804 635.976 223.907 635.811 224.995H635.827Z" fill="#231F20"/>
<path d="M632.893 241.305L629.677 240.629C630.123 238.488 630.551 236.346 630.947 234.204L634.179 234.797C633.767 236.972 633.354 239.147 632.893 241.305Z" fill="#231F20"/>
<path d="M608.836 309.922L605.901 308.439C615.234 289.921 622.488 270.333 627.484 250.201L630.667 250.992C625.621 271.354 618.267 291.19 608.836 309.922Z" fill="#231F20"/>
<path d="M75.8798 155.175L72.6151 154.813C77.5616 109.771 93.407 65.9977 118.453 28.2542L121.19 30.0664C96.4409 67.3815 80.7604 110.644 75.8798 155.175V155.175Z" fill="#231F20"/>
<path d="M123.004 27.348L120.283 25.5029C122.13 22.7846 124.059 20.0498 126.021 17.3809L128.676 19.3249C126.747 21.9773 124.834 24.6791 123.004 27.348Z" fill="#231F20"/>
<path d="M613.337 54.5972C608.457 44.8771 602.949 35.3218 596.997 26.2113L599.751 24.4155C605.785 33.6249 611.342 43.279 616.289 53.1144L613.354 54.5807L613.337 54.5972Z" fill="#231F20"/>
<path d="M626.347 84.6469C624.088 78.5018 621.598 72.3732 618.943 66.4424L621.944 65.1079C624.632 71.1212 627.155 77.3157 629.43 83.5266L626.347 84.6634V84.6469Z" fill="#231F20"/>
<path d="M637.312 122.374C636.603 119.145 635.844 115.932 635.053 112.802L638.235 111.995C639.043 115.158 639.801 118.42 640.51 121.666L637.295 122.357L637.312 122.374Z" fill="#231F20"/>
<path d="M643.857 227.071L640.609 226.576C641.269 222.293 641.829 217.927 642.291 213.578L645.556 213.924C645.094 218.306 644.517 222.738 643.857 227.071Z" fill="#231F20"/>
<path d="M642.176 236.873L638.944 236.263C639.142 235.193 639.34 234.122 639.521 233.034L642.753 233.595C642.555 234.682 642.357 235.769 642.159 236.857L642.176 236.873Z" fill="#231F20"/>
<path d="M619.867 306.067L616.899 304.683C624.764 287.895 631.013 270.251 635.465 252.26L638.647 253.051C634.129 271.256 627.814 289.081 619.867 306.067Z" fill="#231F20"/>
<path d="M67.817 153.05L64.5523 152.671C64.7996 150.48 65.0799 148.289 65.3767 146.097L68.6249 146.542C68.3282 148.7 68.0643 150.875 67.817 153.05Z" fill="#231F20"/>
<path d="M69.5978 140.068L66.3495 139.557C72.879 98.7822 87.5867 60.5774 110.093 25.9641L112.847 27.7434C90.6041 61.9613 76.0448 99.7542 69.5813 140.068H69.5978Z" fill="#231F20"/>
<path d="M623.346 56.294C618.185 45.4866 612.315 34.8769 605.868 24.7779L608.638 23.0151C615.151 33.2294 621.087 43.938 626.297 54.8772L623.329 56.294H623.346Z" fill="#231F20"/>
<path d="M633.569 80.4293C633.19 79.4079 632.794 78.3864 632.415 77.365L635.481 76.1953C635.877 77.2332 636.273 78.2546 636.652 79.2926L633.569 80.4293Z" fill="#231F20"/>
<path d="M635.795 86.5909C635.432 85.553 635.069 84.5316 634.706 83.4937L637.79 82.3899C638.169 83.4278 638.532 84.4657 638.894 85.5201L635.795 86.5909V86.5909Z" fill="#231F20"/>
<path d="M645.523 121.287C643.231 110.644 640.313 100.018 636.866 89.7047L639.983 88.6667C643.478 99.0952 646.43 109.837 648.738 120.595L645.523 121.287Z" fill="#231F20"/>
<path d="M652.349 226L649.101 225.522C649.562 222.293 649.991 219.015 650.337 215.769L653.602 216.131C653.239 219.41 652.81 222.738 652.349 226V226Z" fill="#231F20"/>
<path d="M651.327 232.54L648.095 231.997C648.276 230.926 648.458 229.838 648.623 228.768L651.871 229.278C651.706 230.366 651.525 231.469 651.343 232.557L651.327 232.54Z" fill="#231F20"/>
<path d="M630.65 302.245L627.633 300.943C635.481 282.936 641.532 264.073 645.621 244.88L648.837 245.572C644.682 264.995 638.564 284.056 630.633 302.261L630.65 302.245Z" fill="#231F20"/>
<path d="M61.0897 141.056L57.8415 140.562C64.0411 99.7872 78.2542 61.3682 100.068 26.376L102.855 28.1058C81.2881 62.7191 67.2234 100.726 61.0897 141.056Z" fill="#231F20"/>
<path d="M631.936 55.1903C627.798 46.3104 623.165 37.5294 618.185 29.0944L621.005 27.4304C626.034 35.9478 630.716 44.8277 634.904 53.8064L631.92 55.1903H631.936Z" fill="#231F20"/>
<path d="M648.128 98.0737C647.518 95.9814 646.875 93.8891 646.215 91.7968L649.348 90.8083C650.024 92.9171 650.667 95.0259 651.277 97.1511L648.128 98.0737V98.0737Z" fill="#231F20"/>
<path d="M660.33 228.323L657.081 227.845C657.559 224.616 657.988 221.337 658.367 218.092L661.632 218.471C661.253 221.733 660.824 225.061 660.33 228.323V228.323Z" fill="#231F20"/>
<path d="M638.631 304.567L635.613 303.266C643.825 284.221 650.107 264.27 654.245 243.957L657.46 244.616C653.272 265.143 646.924 285.308 638.631 304.567Z" fill="#231F20"/>
<path d="M53.6369 135.455L50.4052 134.911C50.5866 133.824 50.768 132.736 50.9658 131.649L54.1976 132.226C53.9997 133.297 53.8183 134.384 53.6369 135.455V135.455Z" fill="#231F20"/>
<path d="M56.0772 122.572L52.862 121.896C59.9685 88.2549 72.5327 56.2281 90.1918 26.7219L93.0114 28.4023C75.5336 57.5955 63.1013 89.2763 56.0772 122.572Z" fill="#231F20"/>
<path d="M639.175 51.1868C635.481 43.3119 631.409 35.4865 627.056 27.9411L629.908 26.3101C634.294 33.9378 638.416 41.8457 642.143 49.803L639.175 51.1868Z" fill="#231F20"/>
<path d="M646.941 69.2595C644.962 64.2182 642.802 59.144 640.543 54.1687L643.528 52.8013C645.82 57.826 647.996 62.9497 649.991 68.0404L646.941 69.243V69.2595Z" fill="#231F20"/>
<path d="M666.661 240.53L663.429 239.937C664.616 233.512 665.622 226.972 666.397 220.497L669.662 220.892C668.87 227.433 667.865 234.039 666.661 240.53V240.53Z" fill="#231F20"/>
<path d="M643.891 313.036L640.906 311.685C648.557 294.798 654.724 277.121 659.241 259.147L662.424 259.938C657.856 278.109 651.624 295.968 643.891 313.036Z" fill="#231F20"/>
<path d="M51.1801 107.366L47.9979 106.542C48.2782 105.471 48.5585 104.4 48.8388 103.346L52.0046 104.202C51.7243 105.257 51.4439 106.311 51.1636 107.366H51.1801Z" fill="#231F20"/>
<path d="M64.5523 66.9532L61.5184 65.7176C67.3389 51.4505 74.264 37.48 82.096 24.2014L84.932 25.8654C77.1825 38.9957 70.3233 52.8179 64.5523 66.9532V66.9532Z" fill="#231F20"/>
<path d="M657.741 74.515C651.805 58.1227 644.468 42.0929 635.927 26.8703L638.796 25.2722C647.419 40.6431 654.839 56.8377 660.841 73.3948L657.757 74.515H657.741Z" fill="#231F20"/>
<path d="M675.169 239.773L671.937 239.196C672.894 233.858 673.718 228.405 674.394 222.985L677.659 223.397C676.966 228.866 676.142 234.369 675.185 239.773H675.169Z" fill="#231F20"/>
<path d="M649.035 321.553L646.067 320.153C657.79 295.441 666.298 269.295 671.36 242.425L674.592 243.035C669.481 270.168 660.89 296.594 649.051 321.553H649.035Z" fill="#231F20"/>
<path d="M60.5291 55.3715L57.5282 54.0535C61.9801 43.9875 66.9926 34.0368 72.4173 24.4814L75.2698 26.1124C69.8945 35.5689 64.9315 45.4208 60.5291 55.388V55.3715Z" fill="#231F20"/>
<path d="M644.814 25.8982C644.286 24.9427 643.758 23.9872 643.231 23.0316L646.1 21.4336C646.644 22.3891 647.171 23.3611 647.699 24.3331L644.814 25.9147V25.8982Z" fill="#231F20"/>
<path d="M657.806 52.3895C654.327 44.4158 650.486 36.4585 646.38 28.7813L649.282 27.2327C653.42 34.9922 657.312 43.0154 660.824 51.0715L657.806 52.373V52.3895Z" fill="#231F20"/>
<path d="M683.084 242.343L679.852 241.75C680.825 236.379 681.666 230.926 682.375 225.555L685.639 225.983C684.93 231.403 684.073 236.922 683.1 242.343H683.084Z" fill="#231F20"/>
<path d="M658.334 321.108L655.35 319.741C664.451 299.889 671.574 279.048 676.538 257.796L679.736 258.537C674.724 280.004 667.518 301.058 658.334 321.108V321.108Z" fill="#231F20"/>
<path d="M651.063 335.985L648.145 334.469C650.156 330.598 652.118 326.644 653.965 322.723L656.933 324.123C655.07 328.077 653.091 332.08 651.063 336.001V335.985Z" fill="#231F20"/>
<path d="M52.6641 52.7683L49.6632 51.4503C54.0821 41.3843 59.0616 31.4171 64.4533 21.8289L67.3223 23.4434C61.9801 32.9328 57.05 42.8011 52.6806 52.7683H52.6641Z" fill="#231F20"/>
<path d="M665.144 48.6003C662.539 42.6365 659.703 36.6562 656.735 30.8077L659.67 29.325C662.671 35.2229 665.523 41.2526 668.161 47.2824L665.144 48.6003V48.6003Z" fill="#231F20"/>
<path d="M693.142 231.898L689.894 231.436C690.042 230.349 690.207 229.278 690.355 228.191L693.603 228.636C693.455 229.723 693.307 230.827 693.142 231.914V231.898Z" fill="#231F20"/>
<path d="M690.982 244.962L687.75 244.369C688.146 242.227 688.525 240.069 688.888 237.911L692.119 238.438C691.757 240.613 691.377 242.787 690.982 244.962Z" fill="#231F20"/>
<path d="M668.887 317.681L665.87 316.38C671.921 302.376 677.049 287.829 681.138 273.117L684.304 273.99C680.182 288.834 675.004 303.529 668.887 317.665V317.681Z" fill="#231F20"/>
<path d="M43.5295 53.1309L40.5121 51.8459C44.3869 42.7354 48.6904 33.6908 53.3402 24.9592L56.2421 26.4914C51.6419 35.1406 47.3713 44.1028 43.5295 53.1145V53.1309Z" fill="#231F20"/>
<path d="M669.794 38.8637C668.87 36.8867 667.947 34.9098 666.991 32.9328L669.942 31.4995C670.898 33.4929 671.855 35.4864 672.778 37.4798L669.794 38.8637V38.8637Z" fill="#231F20"/>
<path d="M685.128 298.752L682.028 297.665C683.842 292.525 685.54 287.286 687.107 282.08L690.256 283.019C688.673 288.274 686.958 293.579 685.128 298.752Z" fill="#231F20"/>
<path d="M682.869 304.979L679.786 303.826C680.165 302.805 680.544 301.783 680.924 300.745L684.007 301.866C683.628 302.904 683.248 303.941 682.853 304.979H682.869Z" fill="#231F20"/>
<path d="M32.0041 59.5559L28.9373 58.3697C32.9275 48.1225 37.4618 37.9576 42.4083 28.1387L45.3433 29.6049C40.4462 39.3415 35.9613 49.4075 32.0041 59.5559Z" fill="#231F20"/>
<path d="M678.533 38.1553C678.087 37.1669 677.626 36.1619 677.164 35.1734L680.148 33.7896C680.61 34.7945 681.072 35.7995 681.533 36.8044L678.533 38.1553V38.1553Z" fill="#231F20"/>
<path d="M708.476 240.613L705.228 240.086C705.574 237.927 705.904 235.769 706.217 233.611L709.465 234.072C709.152 236.264 708.822 238.438 708.46 240.613H708.476Z" fill="#231F20"/>
<path d="M21.8966 62.9663L18.8133 61.8295C22.2264 52.5543 26.0847 43.2955 30.2563 34.3333L33.2407 35.7171C29.1021 44.597 25.2933 53.7734 21.9131 62.9663H21.8966Z" fill="#231F20"/>
<path d="M716.902 240.119L713.653 239.608C713.818 238.52 713.983 237.45 714.148 236.362L717.396 236.84C717.231 237.927 717.066 239.031 716.902 240.119Z" fill="#231F20"/>
<path d="M13.0259 63.2793L9.92603 62.1755C10.3053 61.1376 10.668 60.0997 11.0472 59.0618L14.1306 60.1985C13.7513 61.22 13.3721 62.2579 13.0094 63.2793H13.0259Z" fill="#231F20"/>
<path d="M15.2848 57.1177L12.218 55.9644C13.7679 51.8622 15.4167 47.7271 17.115 43.6743L20.1489 44.9429C18.4671 48.9627 16.8182 53.0649 15.2848 57.1341V57.1177Z" fill="#231F20"/>
<path d="M22.7376 38.9132L19.7367 37.5952C20.1819 36.5902 20.6271 35.5853 21.0887 34.5803L24.0896 35.9312C23.6445 36.9362 23.1993 37.9247 22.7541 38.9296L22.7376 38.9132Z" fill="#231F20"/>
<path d="M693.273 343.678L690.305 342.262C691.707 339.329 693.092 336.314 694.428 333.332L697.428 334.667C696.076 337.682 694.691 340.713 693.257 343.678H693.273Z" fill="#231F20"/>
<path d="M3.11632 66.6731L0 65.6187C0.346257 64.5808 0.709003 63.5264 1.07175 62.4885L4.17158 63.5594C3.80883 64.5973 3.46257 65.6352 3.11632 66.6566V66.6731Z" fill="#231F20"/>
<path d="M705.194 337.484L702.193 336.15C703.529 333.135 704.832 330.087 706.068 327.105L709.102 328.357C707.865 331.372 706.546 334.453 705.194 337.484V337.484Z" fill="#231F20"/>
<path d="M716.852 331.207L713.818 329.955C715.483 325.919 717.083 321.816 718.616 317.731L721.699 318.884C720.166 323.003 718.55 327.138 716.868 331.207H716.852Z" fill="#231F20"/>
</svg>
